# xmcd
#
# Track frame offsets: 
#        150
#        12960
#        30972
#        47580
#        62645
#        74015
#        87945
#        103635
#        116420
#        127477
#        145295
#        163477
#
# Disc length: 2403 seconds
#
# Revision: 0
# Processed by: cddbd v1.4PL0 Copyright (c) Steve Scherf et al.
# Submitted via: ExactAudioCopy v0.90b3
#
DISCID=ac09610c
DTITLE=Various Artist - Country Wildflower
DYEAR=1900
DGENRE=Country
TTITLE0=Kathy Matter/Lonesome Standard Time
TTITLE1=Pam Tillis/Maybe It Was Memphis
TTITLE2=Clarence Carter/I Fell In Love
TTITLE3=Dolly Pardon/Tennessee Homesick Blues
TTITLE4=Patty Loveless/Timber, I'm Falling In Love
TTITLE5=Lorrie Morgan/We Both Walk
TTITLE6=Tanya Tucker/Down To My Last TearDrop
TTITLE7=Patsy Cline/I Fall To Pieces
TTITLE8=Linda Ronstadt/It's So Easy
TTITLE9=Michelle Wright/Take It Like A Man
TTITLE10=Rosanne Cash/Runaway Train
TTITLE11=Kelly Willis/Baby Take A Piece Of My Heart
EXTD=
EXTT0=
EXTT1=
EXTT2=
EXTT3=
EXTT4=
EXTT5=
EXTT6=
EXTT7=
EXTT8=
EXTT9=
EXTT10=
EXTT11=
PLAYORDER=
